<svg xmlns="http://www.w3.org/2000/svg" xmlns:xlink="http://www.w3.org/1999/xlink" width="80.602" height="80.596" viewBox="0 0 80.602 80.596">
  <defs>
    <linearGradient id="linear-gradient" x1="0.223" y1="0.899" x2="0.831" y2="0.129" gradientUnits="objectBoundingBox">
      <stop offset="0" stop-color="#ffd154"/>
      <stop offset="0.489" stop-color="#f6524c"/>
      <stop offset="1" stop-color="#4b62c9"/>
    </linearGradient>
  </defs>
  <g id="Instagram-Icon-okcbne3" transform="translate(19854.121 1484.034)">
    <path id="Instagram-Icon-okcbne3-2" data-name="Instagram-Icon-okcbne3" d="M40.3,0A40.3,40.3,0,1,1,0,40.3,40.3,40.3,0,0,1,40.3,0" transform="translate(-19854.121 -1484.034)" fill="url(#linear-gradient)"/>
    <path id="Path_133034" data-name="Path 133034" d="M26.6,48.547c-.147,0-.294,0-.451,0-3.505.009-6.744-.081-9.9-.271a13.225,13.225,0,0,1-7.633-2.888A12.234,12.234,0,0,1,4.5,38.734a29.525,29.525,0,0,1-.679-7.029c-.019-1.639-.043-3.572-.047-5.543s.028-3.914.047-5.552A29.525,29.525,0,0,1,4.5,13.58,12.234,12.234,0,0,1,8.617,6.931a13.225,13.225,0,0,1,7.633-2.888c3.154-.19,6.4-.28,9.912-.271,3.505-.01,6.754.081,9.9.271A13.277,13.277,0,0,1,43.7,6.931a12.227,12.227,0,0,1,4.113,6.649,29.525,29.525,0,0,1,.679,7.029c.024,1.639.048,3.572.048,5.543v.009c0,1.971-.024,3.9-.048,5.543a29.525,29.525,0,0,1-.679,7.029A12.227,12.227,0,0,1,43.7,45.384a13.277,13.277,0,0,1-7.637,2.888c-3.016.185-6.118.275-9.466.275m-.451-3.5c3.453.009,6.626-.081,9.7-.266a9.623,9.623,0,0,0,5.633-2.109,8.8,8.8,0,0,0,2.945-4.8,27.134,27.134,0,0,0,.56-6.217c.024-1.62.048-3.543.057-5.5-.009-1.952-.033-3.876-.057-5.5a27.134,27.134,0,0,0-.56-6.217,8.8,8.8,0,0,0-2.945-4.8,9.624,9.624,0,0,0-5.633-2.109c-3.078-.185-6.25-.275-9.689-.266-3.453-.009-6.621.081-9.7.266a9.624,9.624,0,0,0-5.633,2.109,8.877,8.877,0,0,0-2.94,4.8,26.874,26.874,0,0,0-.565,6.217c-.024,1.624-.047,3.548-.052,5.5s.028,3.866.052,5.491a26.874,26.874,0,0,0,.565,6.217,8.877,8.877,0,0,0,2.94,4.8,9.655,9.655,0,0,0,5.633,2.109c3.083.185,6.25.275,9.689.266m-.076-7.956A10.934,10.934,0,1,1,37,26.157,10.948,10.948,0,0,1,26.071,37.091m0-18.367A7.433,7.433,0,1,0,33.5,26.157a7.441,7.441,0,0,0-7.428-7.433m12.154-7a2.624,2.624,0,1,0,2.617,2.622,2.618,2.618,0,0,0-2.617-2.622" transform="translate(-19839.979 -1469.891)" fill="#fff"/>
  </g>
</svg>
